:FULLY-SPECIFIED
:FORCE-ALL-JOINTS-BE-3DOF
:DEGREES
238
root 5.63416 15.6805 -25.8492 10.0594 23.5802 -4.79254
lfemur -36.3041 30.589 -4.86389
ltibia 50.658 -0 0
lfoot -14.3752 2.01394 0.0734195
ltoes 2.13653 -0 0
rfemur -22.5761 -13.4829 3.7634
rtibia 45.3617 -0 0
rfoot -17.8913 -0.249745 -1.8487
rtoes 40.5256 -0 0
lowerback 1.52702 -2.10026 1.30669
upperback -0.587417 -2.74308 2.06218
thorax -1.40654 -1.37145 1.45854
lowerneck -11.3607 -2.71488 0.0701701
upperneck 1.33996 -3.6357 0.484535
head 2.4215 -1.79394 -0.0559048
lclavicle -2.57426e-14 3.57812e-15 0
lhumerus -53.0755 -37.3608 120.158
lradius 60.8747 -0 0
lwrist 19.1154 0 0
lhand 11.6354 14.9171 0.0426987
lfingers 7.12502 -0 0
lthumb 36.6705 41.0209 0.0253593
rclavicle -2.57426e-14 3.57812e-15 0
rhumerus -36.2568 -2.6269 -68.9227
rradius 89.8142 -0 0
rwrist -9.94133 0 0
rhand 28.8009 -21.1843 -3.17996
rfingers 7.12502 -0 0
rthumb 51.0757 -30.4052 0.147286
239
root 5.73532 15.7142 -25.8391 9.96803 25.2089 -4.54481
lfemur -36.28 29.9613 -5.72128
ltibia 50.1878 -0 0
lfoot -14.5073 1.30617 0.0799541
ltoes 5.5448 -0 0
rfemur -22.1905 -12.3051 3.53632
rtibia 46.4137 -0 0
rfoot -15.5097 -1.24421 -2.0158
rtoes 37.5309 -0 0
lowerback 1.5328 -2.12916 1.14936
upperback -0.598143 -2.78373 2.11254
thorax -1.40917 -1.39001 1.59977
lowerneck -11.2614 -3.05691 -0.0628923
upperneck 1.41712 -4.07371 0.502554
head 2.43522 -2.01261 -0.0506648
lclavicle -2.57426e-14 3.57812e-15 0
lhumerus -52.9469 -37.1276 120.085
lradius 60.9092 -0 0
lwrist 19.1748 0 0
lhand 11.3362 14.7354 0.0464953
lfingers 7.12502 -0 0
lthumb 36.3868 40.9071 0.0276139
rclavicle -2.57426e-14 3.57812e-15 0
rhumerus -36.6727 -2.8905 -68.7375
rradius 86.5229 -0 0
rwrist -6.36373 0 0
rhand 25.7166 -19.857 -3.47077
rfingers 7.12502 -0 0
rthumb 48.2656 -30.4724 0.160639
240
root 5.83647 15.748 -25.8289 9.8833 26.8379 -4.29653
lfemur -36.2453 29.3339 -6.57364
ltibia 49.7175 -0 0
lfoot -14.6396 0.59839 0.0848559
ltoes 8.95307 -0 0
rfemur -21.8113 -11.126 3.31829
rtibia 47.4657 -0 0
rfoot -13.1253 -2.24486 -2.14143
rtoes 34.5362 -0 0
lowerback 1.53865 -2.15804 0.992025
upperback -0.608904 -2.82436 2.16292
thorax -1.41185 -1.40856 1.741
lowerneck -11.1612 -3.3987 -0.196593
upperneck 1.49419 -4.51175 0.519991
head 2.44894 -2.23127 -0.0454764
lclavicle -2.57426e-14 3.57812e-15 0
lhumerus -52.819 -36.8942 120.013
lradius 60.9437 -0 0
lwrist 19.2343 0 0
lhand 11.037 14.5537 0.0493429
lfingers 7.12502 -0 0
lthumb 36.1032 40.7932 0.029305
rclavicle -2.57426e-14 3.57812e-15 0
rhumerus -37.0895 -3.15274 -68.5503
rradius 83.2316 -0 0
rwrist -2.78614 0 0
rhand 22.6254 -18.5156 -3.68979
rfingers 7.12502 -0 0
rthumb 45.4556 -30.5401 0.170682
241
root 5.93763 15.7817 -25.8188 9.80533 28.4672 -4.04727
lfemur -36.2001 28.7071 -7.42127
ltibia 49.2473 -0 0
lfoot -14.7718 -0.109403 0.0881243
ltoes 12.3613 -0 0
rfemur -21.4381 -9.94545 3.10903
rtibia 48.5177 -0 0
rfoot -10.7389 -3.24995 -2.22532
rtoes 31.5415 -0 0
lowerback 1.54459 -2.18691 0.834683
upperback -0.619702 -2.86499 2.2133
thorax -1.41458 -1.42711 1.88224
lowerneck -11.0602 -3.74027 -0.330942
upperneck 1.57117 -4.9498 0.536847
head 2.46263 -2.44994 -0.0403396
lclavicle -2.57426e-14 3.57812e-15 0
lhumerus -52.6919 -36.6608 119.941
lradius 60.9782 -0 0
lwrist 19.2937 0 0
lhand 10.7377 14.3719 0.0512414
lfingers 7.12502 -0 0
lthumb 35.8195 40.6793 0.0304324
rclavicle -2.57426e-14 3.57812e-15 0
rhumerus -37.5072 -3.41362 -68.3612
rradius 79.9403 -0 0
rwrist 0.791455 0 0
rhand 19.5294 -17.1641 -3.83624
rfingers 7.12502 -0 0
rthumb 42.6455 -30.6083 0.177391
242
root 6.03879 15.8155 -25.8087 9.7343 30.0968 -3.79656
lfemur -36.1447 28.0809 -8.26447
ltibia 48.7771 -0 0
lfoot -14.9041 -0.8172 0.0897586
ltoes 15.7696 -0 0
rfemur -21.0705 -8.76361 2.90825
rtibia 49.5697 -0 0
rfoot -8.3513 -4.2577 -2.26731
rtoes 28.5468 -0 0
lowerback 1.55061 -2.21576 0.677335
upperback -0.630536 -2.90561 2.26369
thorax -1.41735 -1.44565 2.02348
lowerneck -10.9584 -4.08159 -0.46595
upperneck 1.64808 -5.38788 0.553124
head 2.4763 -2.6686 -0.0352543
lclavicle -2.57426e-14 3.57812e-15 0
lhumerus -52.5656 -36.4272 119.871
lradius 61.0127 -0 0
lwrist 19.3532 0 0
lhand 10.4385 14.1902 0.0521906
lfingers 7.12502 -0 0
lthumb 35.5359 40.5655 0.0309961
rclavicle -2.57426e-14 3.57812e-15 0
rhumerus -37.926 -3.67311 -68.1702
rradius 76.649 -0 0
rwrist 4.36905 0 0
rhand 16.4303 -15.8064 -3.90959
rfingers 7.12502 -0 0
rthumb 39.8354 -30.6767 0.180749
